Coordinates
version=1
nRows=5
nColumns=40
inDegrees=yes

Units are S.I. units (second, meters, Newtons, ...)
If the header above contains a line with 'inDegrees', this indicates whether rotational values are in degrees (yes) or radians (no).

endheader
time	pelvis_tilt	pelvis_list	pelvis_rotation	pelvis_tx	pelvis_ty	pelvis_tz	hip_flexion_r	hip_adduction_r	hip_rotation_r	knee_angle_r	knee_angle_r_beta	ankle_angle_r	subtalar_angle_r	mtp_angle_r	hip_flexion_l	hip_adduction_l	hip_rotation_l	knee_angle_l	knee_angle_l_beta	ankle_angle_l	subtalar_angle_l	mtp_angle_l	lumbar_extension	lumbar_bending	lumbar_rotation	arm_flex_r	arm_add_r	arm_rot_r	elbow_flex_r	pro_sup_r	wrist_flex_r	wrist_dev_r	arm_flex_l	arm_add_l	arm_rot_l	elbow_flex_l	pro_sup_l	wrist_flex_l	wrist_dev_l
      2.22500000	     -2.15435910	     -3.89277834	     -3.90860673	     -0.35915501	      1.00642237	     -1.05867752	     47.29561912	      1.77949731	     -7.31859905	      6.28126066	      0.10962868	      1.31991032	      0.00000000	      0.00000000	     24.41768845	     -1.97034948	     -4.32347359	     40.30189721	      0.70340080	      4.87039751	      0.00000000	      0.00000000	     -5.28015760	     -0.55348791	      8.20063051	     89.95868287	    -17.96934539	     23.02160212	     41.75676736	     71.03144642	      0.00000000	      0.00000000	     89.93889855	    -27.14871471	     14.01753361	     40.88268138	     81.20009657	      0.00000000	      0.00000000
      2.23000000	     -2.13348784	     -3.88913191	     -3.86913415	     -0.35956402	      1.00586448	     -1.05873359	     47.30044057	      1.76939044	     -7.42787457	      6.29325742	      0.10983806	      1.08754637	      0.00000000	      0.00000000	     24.50987842	     -1.96156640	     -4.29829622	     40.48375035	      0.70657474	      4.92963473	      0.00000000	      0.00000000	     -5.33020367	     -0.54372230	      8.15788256	     89.95887258	    -17.83548237	     22.96802118	     41.75765725	     70.54123372	      0.00000000	      0.00000000	     89.93905589	    -27.17082542	     13.91264655	     40.95358770	     81.19807686	      0.00000000	      0.00000000
      2.23500000	     -2.11258729	     -3.84725961	     -3.88443445	     -0.35999752	      1.00527387	     -1.05880999	     47.31841924	      1.75415842	     -7.40780785	      6.35937259	      0.11099199	      1.09875634	      0.00000000	      0.00000000	     24.59433138	     -1.92230593	     -4.31417522	     40.65006120	      0.70947741	      5.04080782	      0.00000000	      0.00000000	     -5.37404721	     -0.59756627	      8.20171142	     89.95899740	    -17.76364446	     22.86320000	     41.72927705	     70.47107630	      0.00000000	      0.00000000	     89.93952702	    -27.10226297	     13.83288934	     41.02151835	     81.01252508	      0.00000000	      0.00000000
      2.24000000	     -2.12269747	     -3.76824104	     -3.86243913	     -0.36046151	      1.00461882	     -1.05888238	     47.32890616	      1.70096279	     -7.33633021	      6.29651038	      0.10989484	      0.88580281	      0.00000000	      0.00000000	     24.72905311	     -1.83118082	     -4.29469317	     40.83368926	      0.71268232	      5.17792395	      0.00000000	      0.00000000	     -5.38185812	     -0.68931291	      8.18975949	     89.95911395	    -17.70630275	     23.37733429	     41.95695858	     64.99377006	      0.00000000	      0.00000000	     89.93967211	    -27.05983644	     14.69047438	     41.24809347	     71.28667627	      0.00000000	      0.00000000
      2.24500000	     -2.12944677	     -3.78097769	     -3.83312013	     -0.36081106	      1.00407925	     -1.05885433	     47.35028220	      1.71385689	     -7.31917132	      6.36549350	      0.11109882	      1.02662641	      0.00000000	      0.00000000	     24.84734369	     -1.86811375	     -4.29930758	     40.99890297	      0.71556585	      5.18022795	      0.00000000	      0.00000000	     -5.41032585	     -0.67530452	      8.10680144	     89.95931246	    -17.56201317	     22.83785458	     41.79496197	     69.73912404	      0.00000000	      0.00000000	     89.93978175	    -27.15011714	     13.67424846	     41.08443307	     81.02768742	      0.00000000	      0.00000000
